<svg width="527" height="390" viewBox="0 0 527 390" fill="none" xmlns="http://www.w3.org/2000/svg">
<path d="M9.07753 127.159C9.07753 65.3701 70.4964 22.3824 128.551 43.5386L481.363 172.111C508.66 182.059 526.825 208.012 526.825 237.066C526.825 270.725 502.584 299.493 469.412 305.199L113.166 366.483C58.7806 375.838 9.07753 333.956 9.07753 278.771V127.159Z" fill="#123962"/>
<path d="M249.674 241.096L64.4077 202.524C59.8299 201.566 55.814 198.835 53.2411 194.931C50.6682 191.026 49.7484 186.268 50.6834 181.698L69.1673 91.8931C70.1127 87.3261 72.8353 83.3257 76.7379 80.7696C80.6405 78.2136 85.4043 77.3106 89.9842 78.2587L275.25 116.831C279.828 117.789 283.844 120.52 286.417 124.424C288.99 128.329 289.91 133.087 288.975 137.657L270.491 227.462C269.546 232.029 266.823 236.029 262.92 238.585C259.018 241.141 254.254 242.044 249.674 241.096Z" fill="white"/>
<path d="M270.491 227.462L270.393 227.937C269.494 232.301 266.894 236.124 263.166 238.565C259.437 241.006 254.885 241.866 250.511 240.954L64.3183 202.19C59.9449 201.279 56.1075 198.672 53.65 194.943C51.1925 191.214 50.3162 186.667 51.2138 182.304L51.3116 181.829L270.491 227.462Z" fill="#123962"/>
<path d="M249.674 241.096L64.4077 202.524C59.8299 201.566 55.814 198.835 53.2411 194.93C50.6682 191.026 49.7484 186.268 50.6834 181.698L69.1673 91.8931C70.1127 87.326 72.8353 83.3257 76.7379 80.7696C80.6405 78.2136 85.4043 77.3106 89.9842 78.2587L275.25 116.831C279.828 117.789 283.844 120.52 286.417 124.424C288.99 128.329 289.91 133.087 288.975 137.657L270.491 227.462C269.545 232.029 266.823 236.029 262.92 238.585C259.018 241.141 254.254 242.044 249.674 241.096ZM89.7693 79.3029C85.4669 78.4123 80.9918 79.2606 77.3258 81.6617C73.6597 84.0628 71.1021 87.8207 70.214 92.111L51.7302 181.916C50.8518 186.209 51.7159 190.679 54.1329 194.346C56.5498 198.014 60.3223 200.579 64.6226 201.48L249.889 240.052C254.191 240.943 258.666 240.094 262.332 237.693C265.998 235.292 268.556 231.534 269.444 227.244L287.928 137.439C288.806 133.146 287.942 128.676 285.525 125.008C283.108 121.341 279.336 118.775 275.036 117.875L89.7693 79.3029Z" fill="#123962"/>
<rect x="219.262" y="179.056" width="43.6768" height="3.92233" rx="1.96117" transform="rotate(11.6672 219.262 179.056)" fill="#E5E5E5"/>
<rect x="184.231" y="161.185" width="81.5527" height="3.92233" rx="1.96117" transform="rotate(11.6672 184.231 161.185)" fill="#E5E5E5"/>
<rect x="207.013" y="150.044" width="58.8015" height="3.92233" rx="1.96117" transform="rotate(11.6672 207.013 150.044)" fill="#E5E5E5"/>
<path d="M126.438 133.517C120.997 132.763 116.268 130.404 112.383 126.505C108.274 122.383 98.5254 123.089 97.5689 124.769L96.3305 127.303L103.042 96.9098L103.149 96.8138C103.385 96.5971 109.091 91.5892 120.868 101.375C129.807 108.802 138.198 107.048 141.391 105.949C141.555 105.892 141.724 105.888 141.884 105.936C142.044 105.983 142.189 106.082 142.305 106.223C142.421 106.364 142.505 106.542 142.549 106.74C142.592 106.938 142.594 107.151 142.554 107.357L137.775 131.934C137.729 132.178 137.626 132.403 137.479 132.58C137.333 132.757 137.15 132.878 136.954 132.926C133.458 133.784 129.913 133.983 126.438 133.517Z" fill="url(#paint0_linear_104_4)"/>
<path d="M103.562 90.0661C103.96 90.1497 104.288 90.4937 104.472 91.0228C104.657 91.552 104.683 92.2229 104.546 92.8884L86.9975 177.448C86.8593 178.114 86.5683 178.72 86.1884 179.132C85.8085 179.544 85.3708 179.729 84.9717 179.646C84.5726 179.563 84.2447 179.219 84.0602 178.69C83.8757 178.161 83.8496 177.49 83.9878 176.824L101.536 92.2639C101.674 91.5985 101.966 90.9934 102.345 90.5814C102.725 90.1694 103.162 89.9841 103.562 90.0661Z" fill="#123962"/>
<rect x="348.411" y="104.53" width="97.0583" height="157.854" rx="4.5" transform="rotate(11.2673 348.411 104.53)" fill="white" stroke="#123962"/>
<path d="M415.765 175.429L415.728 175.613C415.631 176.075 415.526 176.533 415.412 176.987C413.437 184.75 408.473 191.451 401.537 195.716C394.6 199.98 386.217 201.485 378.106 199.922C369.994 198.36 362.767 193.848 357.907 187.311C353.047 180.774 350.922 172.708 351.966 164.765C352.053 164.105 352.162 163.445 352.294 162.784C353.552 156.408 356.831 150.596 361.673 146.159C362.06 145.801 362.459 145.453 362.868 145.115C363.151 144.88 363.439 144.652 363.728 144.427C370.311 139.34 378.714 136.988 387.134 137.874C395.554 138.761 403.32 142.815 408.766 149.169C409.088 149.544 409.402 149.929 409.706 150.318C409.949 150.63 410.186 150.946 410.417 151.267C414.969 157.559 417.016 165.225 416.17 172.82C416.073 173.688 415.938 174.558 415.765 175.429Z" fill="#BDBAF7"/>
<path d="M362.721 145.727C362.735 145.736 362.748 145.747 362.759 145.76C362.902 145.931 362.637 146.15 362.619 146.371C362.594 146.654 362.961 146.791 363.242 146.875C363.522 146.961 363.838 147.258 363.654 147.478C362.887 147.576 362.207 147.194 361.528 146.773C356.698 151.223 353.424 157.048 352.164 163.435C352.032 164.098 351.922 164.76 351.835 165.42C351.887 165.475 351.946 165.522 352.011 165.561C352.21 165.684 352.462 165.719 352.638 165.872C352.777 165.993 352.85 166.174 352.991 166.289C353.393 166.617 354.108 166.282 354.471 166.651C354.56 166.769 354.642 166.892 354.717 167.019C355.039 167.423 355.72 167.33 356.118 167.664C356.375 167.879 356.461 168.223 356.559 168.539C356.802 169.329 357.286 170.154 358.099 170.374C358.361 170.415 358.62 170.475 358.873 170.555C359.115 170.662 359.322 170.928 359.231 171.169C359.075 171.585 359.198 172.098 359.054 172.516C358.792 173.282 357.582 173.398 357.328 174.165C357.293 174.338 357.249 174.509 357.195 174.677C357.102 174.873 356.91 175.009 356.813 175.203C356.628 175.57 356.837 176.015 357.097 176.337C357.359 176.662 357.688 176.963 357.787 177.362C357.891 177.786 357.713 178.219 357.687 178.652C357.632 179.599 358.312 180.443 359.063 181.05C359.31 181.214 359.515 181.431 359.661 181.684C359.816 182.031 359.715 182.427 359.715 182.805C359.715 183.727 360.335 184.612 360.176 185.52C360.063 186.167 359.581 186.677 359.241 187.239C358.889 187.83 358.687 188.495 358.651 189.18C359.675 190.439 360.796 191.62 362.002 192.715C362.097 192.623 362.176 192.514 362.233 192.395C362.287 192.261 362.297 192.114 362.264 191.973C362.23 191.832 362.153 191.705 362.043 191.607C362.292 191.568 362.528 191.478 362.738 191.344C362.841 191.275 362.92 191.176 362.964 191.06C363.008 190.945 363.014 190.819 362.982 190.699C363.352 190.821 363.797 190.934 364.103 190.7C364.348 190.514 364.403 190.171 364.38 189.868C364.358 189.563 364.281 189.257 364.338 188.957C365.207 189.173 366.092 189.32 366.984 189.395C366.94 188.955 366.723 188.547 366.378 188.258C366.787 188.272 367.238 187.882 367.437 187.535C367.62 187.178 367.706 186.78 367.685 186.379C367.675 186.275 367.691 186.17 367.733 186.075C367.823 185.954 367.956 185.871 368.106 185.841C368.833 185.605 369.56 185.369 370.286 185.133C370.414 185.099 370.536 185.044 370.645 184.971C370.897 184.775 370.937 184.415 370.89 184.102C370.843 183.79 370.73 183.482 370.75 183.167C370.812 182.227 371.95 181.769 372.462 180.972C372.646 180.65 372.78 180.303 372.859 179.942C372.965 179.557 373.057 179.107 372.801 178.796C372.555 178.496 372.086 178.46 371.823 178.174C371.582 177.912 371.564 177.497 371.289 177.27C371.04 177.063 370.672 177.09 370.374 176.956C369.853 176.724 369.631 176.041 369.083 175.873C368.776 175.777 368.388 175.857 368.166 175.627C367.97 175.422 368.024 175.104 368.034 174.827C368.041 174.393 367.912 173.967 367.665 173.605C367.417 173.243 367.062 172.963 366.649 172.802C366.334 172.687 365.977 172.635 365.735 172.406C365.49 172.174 365.429 171.819 365.256 171.53C364.981 171.067 364.45 170.816 363.951 170.592C363.273 170.289 362.597 169.985 361.921 169.681C361.562 169.518 361.085 169.375 360.816 169.658C360.731 169.768 360.663 169.891 360.614 170.021C360.489 170.247 360.293 170.429 360.055 170.54C359.817 170.651 359.549 170.685 359.288 170.637C359.169 170.306 358.924 170.031 358.605 169.869C358.391 169.789 358.182 169.695 357.981 169.588C357.879 169.512 357.795 169.417 357.732 169.309C357.669 169.2 357.63 169.081 357.616 168.957C357.602 168.834 357.614 168.709 357.651 168.591C357.688 168.473 357.75 168.363 357.832 168.269C357.996 168.081 358.092 167.844 358.105 167.596C358.118 167.347 358.046 167.101 357.902 166.894C357.604 166.506 357.097 166.324 356.604 166.259C356.531 165.963 356.805 165.701 357.072 165.549C357.341 165.4 357.657 165.263 357.765 164.979C357.937 164.533 357.402 164.063 356.917 164.108C356.431 164.155 356.052 164.531 355.773 164.92C355.629 165.154 355.453 165.367 355.25 165.555C355.147 165.647 355.02 165.71 354.882 165.735C354.745 165.761 354.602 165.749 354.47 165.7C354.11 165.531 354.053 165.064 354.043 164.678C354.007 164.158 354.04 163.636 354.142 163.125C354.248 162.61 354.556 162.159 355.001 161.866C355.739 161.429 356.692 161.675 357.52 161.934C357.452 161.798 357.438 161.643 357.479 161.499C357.52 161.355 357.614 161.231 357.743 161.15C357.875 161.074 358.025 161.032 358.179 161.026C358.333 161.02 358.487 161.051 358.626 161.116C358.871 161.219 359.074 161.398 359.202 161.626C359.386 161.959 359.378 162.361 359.494 162.72C359.612 163.081 359.966 163.44 360.334 163.332C360.655 163.239 360.777 162.858 360.769 162.531C360.757 162.206 360.665 161.872 360.755 161.558C360.925 160.962 361.645 160.724 362.265 160.588C362.885 160.452 363.604 160.244 363.815 159.658C363.842 159.541 363.889 159.43 363.952 159.328C364.035 159.242 364.139 159.178 364.255 159.144C366.131 158.403 368.041 157.654 370.059 157.448C370.164 157.436 370.168 157.472 370.274 157.469C370.432 157.417 370.381 157.178 370.263 157.063C370.145 156.948 369.978 156.843 369.974 156.681C369.973 156.563 370.065 156.463 370.105 156.351C370.123 156.283 370.124 156.21 370.107 156.141C370.09 156.071 370.056 156.007 370.008 155.953C369.96 155.899 369.899 155.857 369.831 155.832C369.763 155.806 369.689 155.797 369.617 155.805C369.503 155.577 369.85 155.409 370.108 155.391C370.882 155.341 371.659 155.371 372.427 155.482C372.518 155.485 372.605 155.518 372.675 155.575C372.72 155.639 372.739 155.717 372.728 155.793C372.716 155.869 372.675 155.938 372.613 155.986C372.488 156.077 372.353 156.156 372.211 156.222C372.064 156.314 371.947 156.444 371.871 156.598C371.795 156.751 371.765 156.923 371.782 157.093C372.141 157.37 372.53 157.659 372.985 157.678C373.438 157.696 373.923 157.291 373.793 156.866C373.673 156.469 373.111 156.272 373.09 155.86C373.065 155.378 373.814 155.102 373.753 154.623C373.727 154.413 373.549 154.255 373.422 154.084C373.274 153.873 373.195 153.623 373.194 153.369C373.193 153.114 373.271 152.866 373.417 152.657C373.157 152.65 372.902 152.582 372.672 152.459C372.443 152.336 372.247 152.161 372.1 151.95C371.83 151.554 371.667 150.978 371.187 150.9C370.747 150.825 370.272 151.247 369.893 151.015C369.8 150.957 369.709 150.861 369.604 150.885C369.568 150.899 369.536 150.921 369.51 150.948C369.484 150.976 369.464 151.009 369.453 151.045C369.254 151.509 369.322 152.096 368.968 152.462C368.582 152.858 367.888 152.785 367.449 153.125C367.211 153.309 367.076 153.594 366.851 153.793C366.625 153.992 366.219 154.068 366.045 153.82C366.192 153.63 366.268 153.397 366.262 153.158C366.255 152.919 366.165 152.688 366.007 152.504C365.834 152.338 365.64 152.194 365.43 152.075C365.2 151.922 364.987 151.745 364.795 151.548C364.698 151.46 364.626 151.347 364.589 151.223C364.571 151.072 364.607 150.92 364.693 150.794C364.862 150.513 365.107 150.283 365.401 150.129C365.696 149.975 366.028 149.902 366.363 149.919C366.655 149.938 366.983 150.017 367.215 149.843C367.336 149.751 367.422 149.592 367.577 149.577C367.672 149.576 367.766 149.606 367.843 149.663C368.174 149.855 368.503 150.047 368.833 150.239C368.941 150.316 369.068 150.363 369.2 150.375C369.266 150.38 369.331 150.36 369.381 150.32C369.432 150.279 369.465 150.221 369.474 150.157C369.474 149.979 369.219 149.843 369.279 149.674C369.303 149.619 369.344 149.574 369.397 149.545C369.86 149.223 370.391 149.006 370.952 148.91C371.512 148.813 372.09 148.839 372.642 148.985C372.732 149.228 372.47 149.44 372.256 149.586C372.042 149.736 371.835 150.035 372.022 150.218C372.1 150.28 372.193 150.321 372.292 150.337C372.546 150.424 372.786 150.549 373 150.71C373.337 150.938 373.664 151.182 373.98 151.437C373.973 151.202 374.029 150.969 374.142 150.762C374.202 150.662 374.299 150.587 374.413 150.553C374.527 150.519 374.651 150.528 374.76 150.578C374.955 150.7 375.008 150.994 375.229 151.064C375.521 151.157 375.725 150.749 375.654 150.455C375.583 150.162 375.378 149.89 375.417 149.591C375.441 149.39 375.568 149.16 375.43 149.009C375.38 148.96 375.319 148.924 375.252 148.903C373.949 148.393 372.646 147.882 371.342 147.37C371.11 147.278 370.757 147.243 370.699 147.477C370.666 147.61 370.762 147.767 370.684 147.878C370.6 147.996 370.413 147.948 370.266 147.967C370.153 147.992 370.052 148.052 369.979 148.139C369.905 148.225 369.862 148.333 369.857 148.446C369.851 148.671 369.896 148.896 369.99 149.102C369.747 148.943 369.353 148.845 369.11 148.683C369.131 148.376 369.111 148.068 369.051 147.766C369.053 147.72 369.045 147.675 369.027 147.632C369.01 147.59 368.983 147.551 368.948 147.52C368.914 147.488 368.873 147.465 368.828 147.45C368.783 147.436 368.736 147.431 368.689 147.437C368.331 147.42 367.972 147.401 367.613 147.384C367.525 147.37 367.435 147.385 367.356 147.426C367.193 147.54 367.281 147.791 367.239 147.983C367.205 148.088 367.138 148.18 367.047 148.246C366.957 148.312 366.847 148.349 366.734 148.351C366.506 148.351 366.281 148.303 366.073 148.211C365.599 148.04 365.128 147.87 364.654 147.699C365.112 147.651 365.545 147.477 365.903 147.198C366.141 147.014 366.327 146.62 366.069 146.459C365.99 146.42 365.905 146.397 365.818 146.39C365.155 146.262 364.74 145.619 364.166 145.267C363.985 145.157 363.786 145.079 363.579 145.036L362.721 145.727Z" fill="#123962"/>
<path d="M415.212 177.981C415.115 178.064 414.996 178.123 414.867 178.153C414.739 178.182 414.604 178.181 414.474 178.149C413.792 177.955 413.687 176.954 413.022 176.71C412.964 176.683 412.899 176.676 412.837 176.691C412.725 176.723 412.681 176.849 412.653 176.956C412.517 177.49 412.381 178.045 412.505 178.587C412.686 179.379 413.408 180.158 413.077 180.894C412.208 180.288 411.913 179.18 411.882 178.167C411.849 177.154 412.016 176.132 411.795 175.136C411.413 175.444 410.832 175.011 410.63 174.567C410.438 174.146 410.359 173.687 410.176 173.261C409.993 172.838 409.666 172.425 409.2 172.311C408.71 172.191 408.217 172.426 407.78 172.654C407.407 172.817 407.074 173.051 406.802 173.341C406.439 173.79 406.39 174.394 406.266 174.949C406.132 175.548 405.87 176.159 405.346 176.515C404.821 176.869 403.986 176.864 403.585 176.369C403.398 176.094 403.289 175.779 403.267 175.456C403.031 173.914 402.888 172.364 402.839 170.811C402.691 171.133 402.288 171.507 402.026 171.249C401.969 171.181 401.928 171.103 401.906 171.02C401.522 170.011 400.59 169.265 399.602 168.732C398.617 168.2 397.541 167.83 396.573 167.267C396.03 166.952 395.526 166.579 395.069 166.157C394.901 166.314 394.781 166.513 394.723 166.732C394.665 166.95 394.67 167.181 394.739 167.4C394.817 167.616 394.968 167.803 395.168 167.932C395.368 168.061 395.606 168.125 395.845 168.113C396.089 168.088 396.314 167.977 396.558 167.947C396.8 167.919 397.101 168.016 397.159 168.245C397.217 168.463 397.023 168.674 397.054 168.898C397.1 169.235 397.602 169.361 397.722 169.685C397.751 169.809 397.738 169.939 397.684 170.054C397.63 170.169 397.538 170.264 397.422 170.325C397.187 170.441 396.936 170.527 396.675 170.58C395.853 170.823 395.191 171.384 394.436 171.773C393.681 172.164 392.687 172.359 391.978 171.872C392.338 171.025 391.353 170.155 391.322 169.233C391.311 168.929 391.408 168.629 391.369 168.328C391.311 167.89 390.981 167.533 390.728 167.161C390.422 166.705 390.213 166.198 390.115 165.669C390.017 165.14 390.031 164.6 390.156 164.081C390.246 163.721 390.391 163.365 390.373 162.992C390.357 162.621 390.113 162.216 389.725 162.154C388.838 162.016 387.715 161.858 387.396 161.058C387.28 160.772 387.283 160.387 387.561 160.241C387.756 160.138 388.002 160.2 388.217 160.265C388.867 160.458 389.515 160.652 390.165 160.844C390.62 160.978 391.113 161.114 391.557 160.965C392.001 160.817 392.295 160.243 391.979 159.9C391.75 159.65 391.265 159.564 391.248 159.237C391.236 158.963 391.6 158.729 391.478 158.476C391.391 158.298 391.117 158.287 390.932 158.372C390.763 158.482 390.584 158.578 390.398 158.659C390.05 158.75 389.703 158.527 389.382 158.359C389.061 158.19 388.606 158.091 388.383 158.357C388.131 158.653 388.391 159.161 388.143 159.459C387.811 159.852 387.041 159.437 386.624 159.75C386.148 160.107 386.674 160.89 386.432 161.42C386.248 161.465 386.054 161.464 385.868 161.417C385.683 161.37 385.512 161.278 385.374 161.15C385.238 161.02 385.142 160.858 385.095 160.682C385.049 160.506 385.053 160.322 385.108 160.15C385.189 159.905 385.379 159.676 385.333 159.421C385.27 159.219 385.132 159.043 384.946 158.924C384.371 158.46 383.795 157.997 383.22 157.535C382.978 157.813 383.127 158.245 383.363 158.537C383.598 158.827 383.917 159.076 384.041 159.422C384.116 159.66 384.093 159.914 383.977 160.133C383.861 160.351 383.66 160.517 383.416 160.597C383.384 160.61 383.35 160.616 383.316 160.614C383.281 160.613 383.248 160.605 383.217 160.59C383.189 160.567 383.167 160.539 383.151 160.508C383.135 160.477 383.126 160.443 383.124 160.409C382.949 159.52 382.598 158.609 381.868 158.018C381.137 157.424 379.947 157.281 379.267 157.895C379.107 158.041 378.981 158.221 378.834 158.38C378.055 159.227 376.702 159.431 375.529 159.167C375.413 159.151 375.303 159.103 375.214 159.028C375.048 158.867 375.109 158.605 375.181 158.394C375.284 158.095 375.385 157.798 375.488 157.499C375.527 157.311 375.64 157.146 375.804 157.038C376.055 156.918 376.35 157.084 376.63 157.135C376.842 157.168 377.059 157.138 377.25 157.05C377.441 156.962 377.597 156.819 377.698 156.641C377.792 156.461 377.832 156.258 377.813 156.055C377.794 155.852 377.717 155.657 377.591 155.49C377.487 155.352 377.345 155.176 377.441 155.036C377.477 155 377.52 154.971 377.569 154.952C377.618 154.933 377.67 154.925 377.723 154.927C378.249 154.891 378.785 154.961 379.307 154.895C379.831 154.832 380.373 154.597 380.586 154.142C380.651 154.002 380.702 153.828 380.856 153.782C380.932 153.77 381.009 153.771 381.086 153.785C381.359 153.802 381.627 153.721 381.837 153.559C382.047 153.397 382.184 153.165 382.22 152.909C382.486 152.801 382.793 152.982 382.988 153.192C383.182 153.403 383.34 153.66 383.603 153.786C384.092 154.023 384.677 153.69 385.213 153.794C385.439 153.839 385.657 153.961 385.882 153.93C386.111 153.899 386.28 153.724 386.473 153.608C386.669 153.491 386.975 153.458 387.096 153.65C387.112 153.338 387.13 153.029 387.145 152.719C387.394 152.833 387.664 152.896 387.938 152.903C388.212 152.91 388.483 152.862 388.733 152.761C388.21 152.472 387.69 152.184 387.167 151.895C387.111 151.87 387.062 151.832 387.025 151.784C386.928 151.637 387.088 151.469 387.214 151.348C387.518 151.059 387.668 150.513 387.311 150.268C387.068 150.1 386.737 150.177 386.456 150.26C386.006 150.392 385.556 150.526 385.105 150.658C385.024 150.87 385.283 151.052 385.429 151.233C385.517 151.344 385.569 151.477 385.578 151.614C385.586 151.751 385.551 151.887 385.476 152.003C385.401 152.119 385.29 152.21 385.158 152.264C385.026 152.318 384.879 152.333 384.736 152.306C384.796 152.421 384.829 152.547 384.832 152.674C384.835 152.801 384.808 152.927 384.753 153.042C384.477 153.006 384.198 152.97 383.92 152.935C383.872 152.934 383.825 152.925 383.781 152.907C383.738 152.889 383.698 152.864 383.664 152.831C383.59 152.741 383.629 152.614 383.628 152.501C383.618 152.363 383.564 152.231 383.474 152.122C383.385 152.012 383.263 151.93 383.125 151.885C382.848 151.799 382.558 151.767 382.27 151.791C382.145 151.807 382.016 151.778 381.909 151.71C381.851 151.656 381.813 151.586 381.801 151.511C381.782 151.358 381.804 151.203 381.866 151.063C381.928 150.922 382.027 150.8 382.155 150.707C382.412 150.527 382.687 150.37 382.976 150.238C383.643 149.879 384.187 149.348 384.546 148.704C385.034 148.614 385.549 148.465 386.039 148.376C386.436 148.289 386.843 148.244 387.252 148.241C387.633 148.262 388.011 148.319 388.381 148.414C388.889 148.524 389.399 148.634 389.906 148.746C390.364 148.819 390.807 148.971 391.21 149.195C391.596 149.441 391.896 149.868 391.84 150.3C391.839 150.351 391.824 150.4 391.797 150.443C391.771 150.486 391.733 150.521 391.687 150.546C391.622 150.565 391.552 150.566 391.486 150.55C391.06 150.478 390.861 150.542 390.435 150.473C390.649 150.796 390.894 151.14 391.274 151.266C391.944 151.486 392.572 150.914 393.005 150.394C392.987 150.544 393.031 150.697 393.13 150.819C393.228 150.942 393.372 151.024 393.531 151.048C393.706 151.054 393.88 151.027 394.042 150.967C395.545 150.536 397.145 150.468 398.699 150.77C398.706 150.656 398.757 150.549 398.843 150.471C398.929 150.392 399.043 150.347 399.164 150.345C399.492 150.349 399.725 150.663 399.824 150.961C399.921 151.259 399.955 151.587 400.159 151.836C400.36 152.085 400.83 152.168 400.982 151.898C401.131 151.639 400.87 151.339 400.648 151.123C400.424 150.909 400.216 150.552 400.437 150.344C401.795 150.33 403.162 150.32 404.509 150.532C404.735 150.583 404.968 150.591 405.195 150.555C405.308 150.534 405.41 150.478 405.484 150.396C405.559 150.314 405.603 150.21 405.608 150.101C405.304 150.107 405.002 150.027 404.742 149.872C404.482 149.716 404.275 149.492 404.147 149.227C405.539 149.394 406.993 149.586 408.254 150.139L409.224 151.293C408.961 151.464 408.629 151.609 408.745 151.856C408.788 151.916 408.844 151.966 408.91 152.003C408.976 152.04 409.049 152.062 409.124 152.068C409.403 152.128 409.68 152.19 409.957 152.245C414.657 158.559 416.794 166.232 415.968 173.82C415.506 173.71 414.968 174.181 414.931 174.678C414.89 175.255 415.229 175.792 415.441 176.338C415.476 176.427 415.506 176.518 415.529 176.61L415.212 177.981Z" fill="#123962"/>
<rect x="334.788" y="210.502" width="81.5527" height="3.92233" rx="1.96117" transform="rotate(10.4323 334.788 210.502)" fill="#E5E5E5"/>
<rect x="342.953" y="229.74" width="55.5686" height="3.92233" rx="1.96117" transform="rotate(10.4323 342.953 229.74)" fill="#E5E5E5"/>
<rect x="353.044" y="249.354" width="29.0734" height="3.92233" rx="1.96117" transform="rotate(10.4323 353.044 249.354)" fill="#E5E5E5"/>
<path d="M352.056 324.546L166.87 363.504C162.293 364.462 157.519 363.571 153.596 361.026C149.673 358.481 146.922 354.49 145.947 349.93L126.867 260.249C125.901 255.686 126.791 250.93 129.341 247.023C131.891 243.117 135.893 240.379 140.469 239.411L325.654 200.453C330.232 199.495 335.006 200.387 338.929 202.932C342.852 205.476 345.603 209.467 346.578 214.028L365.658 303.708C366.624 308.271 365.734 313.027 363.184 316.934C360.634 320.84 356.632 323.578 352.056 324.546Z" fill="white"/>
<path d="M365.658 303.708L365.759 304.182C366.686 308.54 365.837 313.085 363.4 316.817C360.964 320.548 357.138 323.161 352.766 324.08L166.654 363.234C162.283 364.153 157.722 363.304 153.975 360.873C150.229 358.442 147.603 354.629 146.676 350.272L146.575 349.798L365.658 303.708Z" fill="#E5E5E5"/>
<path d="M350.733 233.549L131.649 279.639L131.871 280.682L241.413 257.637L350.955 234.592L350.733 233.549Z" fill="#123962"/>
<path d="M352.056 324.546L166.87 363.504C162.293 364.462 157.519 363.571 153.596 361.026C149.673 358.481 146.922 354.49 145.947 349.93L126.867 260.249C125.901 255.686 126.791 250.93 129.341 247.023C131.891 243.117 135.893 240.379 140.469 239.411L325.654 200.453C330.232 199.495 335.006 200.387 338.929 202.932C342.852 205.476 345.603 209.467 346.578 214.028L365.658 303.708C366.624 308.271 365.734 313.027 363.184 316.934C360.634 320.84 356.632 323.578 352.056 324.546ZM140.691 240.454C136.392 241.364 132.633 243.935 130.238 247.605C127.842 251.275 127.006 255.743 127.913 260.029L146.993 349.71C147.91 353.994 150.494 357.743 154.179 360.133C157.863 362.524 162.348 363.361 166.649 362.461L351.834 323.503C356.132 322.594 359.892 320.022 362.287 316.352C364.683 312.683 365.519 308.214 364.612 303.928L345.532 214.248C344.615 209.963 342.031 206.215 338.346 203.824C334.661 201.434 330.177 200.596 325.876 201.496L140.691 240.454Z" fill="#123962"/>
<rect x="173.323" y="245.336" width="160.816" height="3.92233" transform="rotate(-11.974 173.323 245.336)" fill="#E5E5E5"/>
<rect x="149.195" y="263.262" width="188.272" height="3.92233" transform="rotate(-11.974 149.195 263.262)" fill="#E5E5E5"/>
<rect x="152.359" y="284.231" width="43.6768" height="3.92233" transform="rotate(-11.974 152.359 284.231)" fill="#E5E5E5"/>
<rect x="154.335" y="299.224" width="81.5527" height="3.92233" transform="rotate(-11.974 154.335 299.224)" fill="#E5E5E5"/>
<rect x="161.005" y="323.598" width="58.8015" height="3.92233" transform="rotate(-11.974 161.005 323.598)" fill="#E5E5E5"/>
<path d="M327.06 297.833C335.879 296.441 341.793 287.487 340.268 277.834C338.744 268.181 330.359 261.485 321.54 262.878C312.721 264.271 306.807 273.225 308.332 282.877C309.856 292.53 318.241 299.226 327.06 297.833Z" fill="#864855"/>
<path d="M304.748 273.13C304.553 271.571 305.407 269.762 308.969 268.184C308.969 268.184 313.929 259.806 323.377 261.754C323.377 261.754 327.464 260.271 331.358 263.421C331.358 263.421 334.135 261.21 336.012 263.748C336.012 263.748 340.806 268.728 340.652 274.831C340.498 280.934 339.961 281.801 339.961 281.801C339.961 281.801 339.218 269.392 329.565 272.222C319.912 275.053 311.397 273.669 310.501 280.665C309.757 286.474 310.563 289.249 310.563 289.249C310.563 289.249 303.286 285.082 304.519 280.387C305.15 277.985 305.048 275.534 304.748 273.13Z" fill="#2F2E41"/>
<rect x="288.424" y="259.988" width="58.335" height="46.568" transform="rotate(-11.974 288.424 259.988)" stroke="#C4C4C4" stroke-width="0.5"/>
<rect x="135.693" y="247.337" width="19.6117" height="13.7282" transform="rotate(-12.2369 135.693 247.337)" fill="#E5E5E5" fill-opacity="0.5"/>
<defs>
<linearGradient id="paint0_linear_104_4" x1="112.428" y1="113.735" x2="140.498" y2="88.7007" gradientUnits="userSpaceOnUse">
<stop stop-color="#123962"/>
<stop offset="1" stop-color="#621C12" stop-opacity="0.49"/>
</linearGradient>
</defs>
</svg>
